<svg class="icon-fill" id="Layer_1" version="1.1" viewBox="0 0 128 128" width="26px" height="26px"><g><g><g><g><path d="M39.067,73.3c-1.003,0-1.595-0.742-1.814-1.235L20.937,42.751c-1.41-2.697-2.244-6.13-2.244-9.206      c0-11.234,9.141-20.375,20.375-20.375s20.375,9.141,20.375,20.375c0,3.149-0.845,6.551-2.316,9.333L40.855,72.111      C40.694,72.497,40.077,73.3,39.067,73.3z M39.067,15.17c-10.132,0-18.375,8.243-18.375,18.375c0,2.728,0.768,5.891,2.004,8.256      l16.372,29.418l16.3-29.295c1.295-2.447,2.074-5.587,2.074-8.379C57.442,23.413,49.199,15.17,39.067,15.17z" /></g></g><g><g><path d="M39.067,48.88c-8.547,0-15.5-6.871-15.5-15.317s6.953-15.317,15.5-15.317s15.5,6.871,15.5,15.317      S47.614,48.88,39.067,48.88z M39.067,19.245c-7.995,0-14.5,6.423-14.5,14.317s6.505,14.317,14.5,14.317s14.5-6.423,14.5-14.317      S47.062,19.245,39.067,19.245z" /></g></g></g><g><g><g><path d="M97.294,30.99c-0.25-0.251-0.512-0.491-0.768-0.736c-3.796,1.895-7.74,3.451-11.795,4.651      c0.113,0.314,0.235,0.626,0.344,0.941C89.278,34.598,93.366,32.975,97.294,30.99z" /></g></g><g><g><path d="M63,37.882c-0.33-0.004-0.659-0.026-0.988-0.036c-0.064,0.331-0.137,0.662-0.216,0.991      c0.402,0.013,0.801,0.04,1.204,0.045V37.882z" /></g></g><g><g><path d="M64.268,38.896c6.764-0.024,13.429-0.974,19.84-2.781c-0.11-0.315-0.231-0.628-0.345-0.942      c-6.302,1.77-12.851,2.7-19.498,2.724L64,37.9v1L64.268,38.896z" /></g></g><g><g><path d="M64.266,87.948L64,87.945v1l0.264,0.003c6.718,0.024,13.336,0.973,19.699,2.78      c0.109-0.316,0.218-0.631,0.323-0.948C77.82,88.939,71.093,87.973,64.266,87.948z" /></g></g><g><g><path d="M44.072,90.677c0.104,0.317,0.211,0.633,0.319,0.949c6.02-1.677,12.267-2.578,18.61-2.663v-1      C56.548,88.049,50.194,88.968,44.072,90.677z" /></g></g><g><g><path d="M97.371,97.025c0.244-0.246,0.478-0.502,0.717-0.753c-4.116-2.143-8.412-3.892-12.84-5.218      c-0.105,0.317-0.212,0.632-0.321,0.947C89.215,93.283,93.378,94.967,97.371,97.025z" /></g></g><g><g><path d="M29.898,96.277c0.238,0.251,0.474,0.505,0.718,0.751c4.107-2.119,8.393-3.839,12.808-5.134      c-0.108-0.316-0.213-0.633-0.317-0.95C38.55,92.284,34.13,94.072,29.898,96.277z" /></g></g><g><g><path d="M75.467,109.532c0.478-0.12,0.95-0.253,1.422-0.388c3.305-5.435,5.993-11.18,8.038-17.142      c-0.32-0.096-0.643-0.182-0.964-0.274C81.828,97.938,78.983,103.907,75.467,109.532z" /></g></g><g><g><path d="M77.168,19.032c-0.475-0.139-0.948-0.28-1.429-0.405c3.304,5.367,5.98,10.889,8.024,16.545      c0.322-0.09,0.647-0.173,0.967-0.268C82.778,29.487,80.263,24.188,77.168,19.032z" /></g></g><g><g><path d="M88.699,62.979l0.004,0.318c0,0.235-0.011,0.468-0.013,0.703h1c0.002-0.235,0.013-0.468,0.013-0.703      l-0.004-0.32c-0.033-9.305-1.584-18.375-4.625-27.131c-0.321,0.095-0.645,0.178-0.967,0.269      C87.126,44.786,88.667,53.766,88.699,62.979z" /></g></g><g><g><path d="M84.286,90.78c0.321,0.091,0.643,0.179,0.962,0.275c2.76-8.356,4.255-17.125,4.425-26.054h-1      C88.503,73.835,87.021,82.512,84.286,90.78z" /></g></g><g><g><path d="M51.588,109.284c0.465,0.127,0.934,0.247,1.405,0.36c-3.567-5.689-6.45-11.729-8.602-18.018      c-0.322,0.09-0.646,0.173-0.966,0.267C45.492,97.947,48.224,103.775,51.588,109.284z" /></g></g><g><g><path d="M44.072,90.677c-1.568-4.76-2.687-9.662-3.412-14.645c-0.305,0.106-0.635,0.175-0.981,0.218      c0.732,4.999,1.857,9.917,3.428,14.694C43.427,90.85,43.75,90.767,44.072,90.677z" /></g></g><g><g><path d="M64,65h-1v22.963c0.334-0.004,0.666-0.018,1-0.018V65z" /></g></g><g><g><path d="M63,110.931c0.332,0.007,0.661,0.069,0.994,0.069H64V88.945c-0.334,0-0.667,0.013-1,0.018V110.931z" /></g></g><g><g><path d="M64,38.9c-0.334,0-0.667-0.013-1-0.018V64h1V38.9z" /></g></g><g><g><path d="M64,17.139c-0.334,0-0.667,0.012-1,0.019v20.725c0.333,0.005,0.666,0.018,1,0.018V17.139z" /></g></g><g><g><path d="M17,64.047c0,0.32,0.018,0.635,0.024,0.953h12.864l-0.557-1h-12.33C17.001,64.016,17,64.031,17,64.047z" /></g></g><g><g><path d="M110.976,65c0.006-0.318,0.024-0.633,0.024-0.952c0-0.016-0.001-0.032-0.001-0.048H89.69      c-0.003,0.334-0.012,0.667-0.018,1H110.976z" /></g></g><g><g><polygon  points="63,64 48.803,64 48.246,65 63,65     "/></g></g><g><g><path d="M64,65h24.673c0.006-0.333,0.015-0.666,0.018-1H64V65z" /></g></g><g><g><path d="M64.115,13.14L64,13.138c-3.906,0-7.749,0.45-11.482,1.308c0.686,0.484,1.344,1.004,1.973,1.557      C57.612,15.371,60.81,15,64.061,15c0.002,0,0.004,0,0.006,0l0.111,0.071C91.099,15.167,113,37.141,113,64.013      s-21.901,48.828-48.818,48.923l-0.103,0.011L64,113.956v-1c-27.019,0-49-21.94-49-48.909c0-6.578,1.352-12.984,3.841-18.894      l-0.577-1.036c-0.214-0.409-0.414-0.836-0.605-1.273C14.64,49.413,13,56.628,13,64.047c0,28.071,22.879,50.909,51,50.909      l0.186-0.003C92.204,114.854,115,92.019,115,64.048S92.204,13.24,64.115,13.14z" /></g></g></g></g></svg>